Coordinates
version=1
nRows=49
nColumns=12
inDegrees=yes

Units are S.I. units (second, meters, Newtons, ...)
Angles are in degrees

endheader
time	SC_y	SC_z	SC_x	AC_y	AC_z	AC_x	GH_y	GH_z	GH_yy	EL_x	PS_y
       0.0              -52.42           20.7          23.16          54.36         -13.72         -18.66         -133.9         -13.43         -8.704          139.2          77.43
   0.03223              -52.42          20.69          23.17          54.36         -13.72         -18.65         -133.9         -13.42         -8.723          139.2          77.44
   0.06447              -52.42          20.69          23.18          54.36         -13.72         -18.65         -133.9         -13.41         -8.742          139.2          77.45
    0.0967              -52.42          20.69          23.19          54.36         -13.72         -18.64         -133.9         -13.39         -8.763          139.2          77.46
    0.1289              -52.42          20.68           23.2          54.36         -13.72         -18.63         -133.9         -13.37         -8.785          139.2          77.47
    0.1612              -52.42          20.68          23.21          54.36         -13.72         -18.63         -133.9         -13.36         -8.809          139.2          77.49
    0.1934              -52.42          20.67          23.22          54.36         -13.72         -18.62         -133.9         -13.34         -8.834          139.2           77.5
    0.2256              -52.42          20.67          23.23          54.36         -13.72         -18.61         -133.9         -13.32         -8.861          139.2          77.52
    0.2579              -52.42          20.67          23.24          54.36         -13.73          -18.6         -133.9          -13.3          -8.89          139.2          77.54
    0.2901              -52.43          20.66          23.25          54.36         -13.73         -18.59         -133.9         -13.28          -8.92          139.2          77.55
    0.3223              -52.43          20.66          23.27          54.36         -13.73         -18.58         -133.9         -13.25         -8.954          139.2          77.57
    0.3546              -52.43          20.65          23.28          54.36         -13.73         -18.57         -133.9         -13.23         -8.989          139.2           77.6
    0.3868              -52.43          20.64           23.3          54.36         -13.73         -18.56         -133.9          -13.2         -9.028          139.2          77.62
     0.419              -52.43          20.64          23.32          54.36         -13.73         -18.55         -133.9         -13.17          -9.07          139.2          77.64
    0.4513              -52.44          20.63          23.34          54.36         -13.74         -18.53         -133.9         -13.14         -9.115          139.1          77.67
    0.4835              -52.44          20.62          23.36          54.36         -13.74         -18.52         -133.9          -13.1         -9.163          139.1           77.7
    0.5157              -52.44          20.61          23.38          54.36         -13.74          -18.5         -133.9         -13.06         -9.217          139.1          77.73
     0.548              -52.45           20.6           23.4          54.36         -13.74         -18.49         -133.9         -13.02         -9.274          139.1          77.76
    0.5802              -52.45          20.59          23.43          54.36         -13.75         -18.47         -133.9         -12.98         -9.338          139.1           77.8
    0.6124              -52.45          20.58          23.46          54.36         -13.75         -18.45         -133.9         -12.93         -9.407          139.1          77.84
    0.6447              -52.46          20.57          23.49          54.36         -13.75         -18.42         -133.9         -12.87         -9.483          139.1          77.89
    0.6769              -52.46          20.56          23.53          54.36         -13.76          -18.4         -133.9         -12.81         -9.566          139.0          77.94
    0.7091              -52.47          20.54          23.57          54.36         -13.76         -18.37         -133.9         -12.75         -9.658          139.0          77.99
    0.7414              -52.47          20.53          23.61          54.36         -13.76         -18.34         -133.9         -12.67         -9.761          139.0          78.05
    0.7736              -52.48          20.51          23.66          54.36         -13.77          -18.3         -133.9         -12.59         -9.874          139.0          78.12
    0.8058              -52.48          20.49          23.71          54.36         -13.77         -18.27         -133.9          -12.5          -10.0          139.0          78.19
    0.8381              -52.49          20.46          23.77          54.36         -13.78         -18.22         -133.9          -12.4         -10.14          138.9          78.28
    0.8703               -52.5          20.44          23.84          54.36         -13.79         -18.17         -134.0         -12.28          -10.3          138.9          78.37
    0.9025              -52.51          20.41          23.92          54.36          -13.8         -18.12         -134.0         -12.15         -10.48          138.8          78.48
    0.9348              -52.52          20.38          24.01          54.36          -13.8         -18.06         -134.0          -12.0         -10.69          138.8           78.6
     0.967              -52.53          20.34          24.11          54.36         -13.81         -17.99         -134.0         -11.83         -10.92          138.8          78.74
    0.9992              -52.55          20.29          24.22          54.36         -13.83          -17.9         -134.0         -11.64         -11.19          138.7           78.9
     1.031              -52.56          20.24          24.35          54.36         -13.84         -17.81         -134.0         -11.42          -11.5          138.6          79.08
     1.064              -52.58          20.19          24.51          54.36         -13.86          -17.7         -134.0         -11.16         -11.86          138.6          79.29
     1.096               -52.6          20.12          24.69          54.36         -13.87         -17.57         -134.0         -10.85         -12.28          138.5          79.54
     1.128              -52.63          20.04           24.9          54.36          -13.9         -17.42         -134.0          -10.5         -12.78          138.4          79.84
      1.16              -52.66          19.94          25.15          54.37         -13.92         -17.24         -134.0         -10.07         -13.37          138.2          80.19
     1.193               -52.7          19.83          25.45          54.37         -13.95         -17.03         -134.0         -9.562         -14.08          138.1           80.6
     1.225              -52.74          19.69          25.82          54.37         -13.99         -16.77         -134.1         -8.945         -14.94          137.9          81.11
     1.257               -52.8          19.52          26.26          54.37         -14.03         -16.45         -134.1         -8.191         -15.98          137.7          81.73
     1.289              -52.86          19.31          26.81          54.37         -14.09         -16.06         -134.1         -7.261         -17.27          137.4          82.49
     1.322              -52.95          19.05           27.5          54.37         -14.16         -15.57         -134.2         -6.102         -18.88          137.0          83.45
     1.354              -53.05          18.72          28.36          54.37         -14.25         -14.96         -134.2         -4.641         -20.91          136.6          84.65
     1.386              -53.19          18.31          29.46          54.38         -14.36         -14.17         -134.3         -2.784         -23.49          136.0          86.17
     1.418              -53.36          17.77          30.87          54.38         -14.51         -13.17         -134.4        -0.4064         -26.79          135.3          88.12
     1.451              -53.58          17.09          32.68          54.38         -14.69         -11.89         -134.5          2.644         -31.03          134.4          90.63
     1.483              -53.87          16.22          34.98          54.39         -14.93         -10.24         -134.6          6.541         -36.44          133.2          93.83
     1.515              -54.22          15.12          37.88           54.4         -15.22          -8.18         -134.8          11.44         -43.25          131.8          97.85
     1.547              -54.66          13.78          41.41           54.4         -15.58         -5.665         -135.0          17.41         -51.54          130.0          102.8
